<svg width="32" height="32" viewBox="0 0 32 32" fill="none" xmlns="http://www.w3.org/2000/svg">
<path fill-rule="evenodd" clip-rule="evenodd" d="M4.62641 5.95952C5.01693 5.56899 5.6501 5.56899 6.04062 5.95952L14.6668 14.5857L23.2931 5.95952C23.6836 5.56899 24.3168 5.56899 24.7073 5.95952C25.0978 6.35004 25.0978 6.98321 24.7073 7.37373L16.0811 16L24.7073 24.6262C25.0978 25.0167 25.0978 25.6499 24.7073 26.0404C24.3168 26.4309 23.6836 26.4309 23.2931 26.0404L14.6668 17.4142L6.0406 26.0404C5.65008 26.4309 5.01691 26.4309 4.62639 26.0404C4.23587 25.6499 4.23587 25.0167 4.62639 24.6262L13.2526 16L4.62641 7.37373C4.23588 6.98321 4.23588 6.35004 4.62641 5.95952Z" fill="#333333"/>
</svg>
