<svg width="20" height="20" viewBox="0 0 20 20" fill="none" xmlns="http://www.w3.org/2000/svg">
<path d="M3.33301 13.3333L2.80268 12.803C2.66203 12.9437 2.58301 13.1344 2.58301 13.3333H3.33301ZM14.1663 2.5L14.6967 1.96967C14.4038 1.67678 13.9289 1.67678 13.636 1.96967L14.1663 2.5ZM17.4997 5.83333L18.03 6.36366C18.3229 6.07077 18.3229 5.5959 18.03 5.303L17.4997 5.83333ZM6.66634 16.6667V17.4167C6.86525 17.4167 7.05602 17.3376 7.19667 17.197L6.66634 16.6667ZM3.33301 16.6667H2.58301C2.58301 17.0809 2.91879 17.4167 3.33301 17.4167V16.6667ZM9.99967 15.9167C9.58546 15.9167 9.24967 16.2525 9.24967 16.6667C9.24967 17.0809 9.58546 17.4167 9.99967 17.4167V15.9167ZM17.083 17.4167C17.4972 17.4167 17.833 17.0809 17.833 16.6667C17.833 16.2525 17.4972 15.9167 17.083 15.9167V17.4167ZM3.86334 13.8637L14.6967 3.03033L13.636 1.96967L2.80268 12.803L3.86334 13.8637ZM13.636 3.03033L16.9693 6.36366L18.03 5.303L14.6967 1.96967L13.636 3.03033ZM16.9693 5.303L6.13601 16.1363L7.19667 17.197L18.03 6.36366L16.9693 5.303ZM6.66634 15.9167H3.33301V17.4167H6.66634V15.9167ZM4.08301 16.6667V13.3333H2.58301V16.6667H4.08301ZM11.136 5.53033L14.4693 8.86366L15.53 7.803L12.1967 4.46967L11.136 5.53033ZM9.99967 17.4167H17.083V15.9167H9.99967V17.4167Z" fill="#AAAAAA"/>
</svg>
