<svg width="145" height="43" viewBox="0 0 145 43" fill="none" xmlns="http://www.w3.org/2000/svg">
<path opacity="0.6" fill-rule="evenodd" clip-rule="evenodd" d="M57.0002 11C52.0297 11 48.0002 15.0294 48.0002 20C48.0002 24.9706 52.0297 29 57.0002 29C61.9708 29 66.0002 24.9706 66.0002 20C66.0002 15.0294 61.9708 11 57.0002 11ZM40.0002 20C40.0002 10.6112 47.6114 3 57.0002 3C66.3891 3 74.0002 10.6112 74.0002 20C74.0002 29.3888 66.3891 37 57.0002 37C47.6114 37 40.0002 29.3888 40.0002 20Z" fill="#B7B6B3"/>
<g filter="url(#filter0_d_109_2434)">
<path fill-rule="evenodd" clip-rule="evenodd" d="M57.0002 11C52.0297 11 48.0002 15.0294 48.0002 20C48.0002 24.9706 52.0297 29 57.0002 29C61.9708 29 66.0002 24.9706 66.0002 20C66.0002 17.7909 67.7911 16 70.0002 16C72.2094 16 74.0002 17.7909 74.0002 20C74.0002 29.3888 66.3891 37 57.0002 37C47.6114 37 40.0002 29.3888 40.0002 20C40.0002 10.6112 47.6114 3 57.0002 3C59.2094 3 61.0002 4.79086 61.0002 7C61.0002 9.20914 59.2094 11 57.0002 11Z" fill="#B7B6B3"/>
</g>
<path opacity="0.6" fill-rule="evenodd" clip-rule="evenodd" d="M2.8297 5.56117C4.17664 3.81016 6.68803 3.48258 8.43904 4.82952L19.0002 12.9535L29.5614 4.82952C30.7692 3.9004 32.4001 3.73829 33.7672 4.41147C35.1343 5.08464 36.0002 6.47614 36.0002 8.00002V33C36.0002 35.2092 34.2093 37 32.0002 37C29.7911 37 28.0002 35.2092 28.0002 33V16.1235L21.439 21.1705C20.0012 22.2765 17.9992 22.2765 16.5614 21.1705L3.56136 11.1705C1.81034 9.82358 1.48277 7.31219 2.8297 5.56117Z" fill="#B7B6B3"/>
<g filter="url(#filter1_d_109_2434)">
<path d="M15.0002 15C15.0002 12.7909 16.7911 11 19.0002 11C21.2094 11 23.0002 12.7909 23.0002 15V33C23.0002 35.2091 21.2094 37 19.0002 37C16.7911 37 15.0002 35.2091 15.0002 33V15Z" fill="#B7B6B3"/>
<path d="M2.00024 7C2.00024 4.79086 3.79111 3 6.00024 3C8.20938 3 10.0002 4.79086 10.0002 7V33C10.0002 35.2091 8.20938 37 6.00024 37C3.79111 37 2.00024 35.2091 2.00024 33V7Z" fill="#B7B6B3"/>
<path fill-rule="evenodd" clip-rule="evenodd" d="M32.0002 3C34.2094 3 36.0002 4.79086 36.0002 7V33C36.0002 35.2091 34.2094 37 32.0002 37C29.7911 37 28.0002 35.2091 28.0002 33V7C28.0002 4.79086 29.7911 3 32.0002 3Z" fill="#B7B6B3"/>
</g>
<path opacity="0.6" fill-rule="evenodd" clip-rule="evenodd" d="M106.813 4.78966C107.481 6.89524 106.316 9.14403 104.211 9.81247L91.0345 13.9953L104.257 23.0307C105.52 23.8938 106.18 25.4018 105.958 26.9153C105.735 28.4289 104.669 29.6829 103.211 30.1458L82.2105 36.8125C80.105 37.4809 77.8562 36.3159 77.1877 34.2103C76.5193 32.1047 77.6843 29.8559 79.7899 29.1875L92.966 25.0046L79.7435 15.9692C78.4804 15.1061 77.8202 13.5982 78.0428 12.0846C78.2654 10.5711 79.3318 9.31704 80.7899 8.85415L101.79 2.18748C103.895 1.51904 106.144 2.68407 106.813 4.78966Z" fill="#B7B6B3"/>
<g filter="url(#filter2_d_109_2434)">
<path fill-rule="evenodd" clip-rule="evenodd" d="M106.828 4.83993C107.469 6.95413 106.274 9.18739 104.16 9.82806L82.1602 16.4947C80.046 17.1354 77.8128 15.9409 77.1721 13.8267C76.5314 11.7125 77.726 9.47919 79.8402 8.83853L101.84 2.17186C103.954 1.53119 106.188 2.72573 106.828 4.83993ZM106.828 25.1733C107.469 27.2875 106.274 29.5207 104.16 30.1614L82.1602 36.8281C80.046 37.4687 77.8128 36.2742 77.1721 34.16C76.5314 32.0458 77.726 29.8125 79.8402 29.1719L101.84 22.5052C103.954 21.8645 106.188 23.0591 106.828 25.1733Z" fill="#B7B6B3"/>
</g>
<path opacity="0.6" fill-rule="evenodd" clip-rule="evenodd" d="M137.828 4.83999C138.469 6.95419 137.274 9.18745 135.16 9.82812L121.617 13.932L136.111 22.9356C137.445 23.7645 138.171 25.2977 137.966 26.8551C137.761 28.4126 136.664 29.7059 135.16 30.1615L113.16 36.8281C111.046 37.4688 108.813 36.2742 108.172 34.16C107.531 32.0458 108.726 29.8126 110.84 29.1719L124.383 25.068L109.889 16.0645C108.555 15.2355 107.829 13.7023 108.034 12.1449C108.239 10.5875 109.337 9.29415 110.84 8.83859L132.84 2.17192C134.954 1.53126 137.188 2.72579 137.828 4.83999Z" fill="#B7B6B3"/>
<g filter="url(#filter3_d_109_2434)">
<path fill-rule="evenodd" clip-rule="evenodd" d="M137.828 4.83999C138.469 6.95419 137.274 9.18745 135.16 9.82812L113.16 16.4948C111.046 17.1355 108.813 15.9409 108.172 13.8267C107.531 11.7125 108.726 9.47926 110.84 8.83859L132.84 2.17192C134.954 1.53126 137.188 2.72579 137.828 4.83999ZM137.828 25.1733C138.469 27.2875 137.274 29.5208 135.16 30.1615L113.16 36.8281C111.046 37.4688 108.813 36.2742 108.172 34.16C107.531 32.0458 108.726 29.8126 110.84 29.1719L132.84 22.5053C134.954 21.8646 137.188 23.0591 137.828 25.1733Z" fill="#B7B6B3"/>
</g>
<defs>
<filter id="filter0_d_109_2434" x="38.0002" y="1" width="42" height="42" filterUnits="userSpaceOnUse" color-interpolation-filters="sRGB">
<feFlood flood-opacity="0" result="BackgroundImageFix"/>
<feColorMatrix in="SourceAlpha" type="matrix" values="0 0 0 0 0 0 0 0 0 0 0 0 0 0 0 0 0 0 127 0" result="hardAlpha"/>
<feOffset dx="2" dy="2"/>
<feGaussianBlur stdDeviation="2"/>
<feComposite in2="hardAlpha" operator="out"/>
<feColorMatrix type="matrix" values="0 0 0 0 0.8 0 0 0 0 0.8 0 0 0 0 0.8 0 0 0 0.25 0"/>
<feBlend mode="normal" in2="BackgroundImageFix" result="effect1_dropShadow_109_2434"/>
<feBlend mode="normal" in="SourceGraphic" in2="effect1_dropShadow_109_2434" result="shape"/>
</filter>
<filter id="filter1_d_109_2434" x="0.000244141" y="1" width="42" height="42" filterUnits="userSpaceOnUse" color-interpolation-filters="sRGB">
<feFlood flood-opacity="0" result="BackgroundImageFix"/>
<feColorMatrix in="SourceAlpha" type="matrix" values="0 0 0 0 0 0 0 0 0 0 0 0 0 0 0 0 0 0 127 0" result="hardAlpha"/>
<feOffset dx="2" dy="2"/>
<feGaussianBlur stdDeviation="2"/>
<feComposite in2="hardAlpha" operator="out"/>
<feColorMatrix type="matrix" values="0 0 0 0 0.8 0 0 0 0 0.8 0 0 0 0 0.8 0 0 0 0.25 0"/>
<feBlend mode="normal" in2="BackgroundImageFix" result="effect1_dropShadow_109_2434"/>
<feBlend mode="normal" in="SourceGraphic" in2="effect1_dropShadow_109_2434" result="shape"/>
</filter>
<filter id="filter2_d_109_2434" x="74.9991" y="-0.00109863" width="38.0021" height="43.0021" filterUnits="userSpaceOnUse" color-interpolation-filters="sRGB">
<feFlood flood-opacity="0" result="BackgroundImageFix"/>
<feColorMatrix in="SourceAlpha" type="matrix" values="0 0 0 0 0 0 0 0 0 0 0 0 0 0 0 0 0 0 127 0" result="hardAlpha"/>
<feOffset dx="2" dy="2"/>
<feGaussianBlur stdDeviation="2"/>
<feComposite in2="hardAlpha" operator="out"/>
<feColorMatrix type="matrix" values="0 0 0 0 0.8 0 0 0 0 0.8 0 0 0 0 0.8 0 0 0 0.25 0"/>
<feBlend mode="normal" in2="BackgroundImageFix" result="effect1_dropShadow_109_2434"/>
<feBlend mode="normal" in="SourceGraphic" in2="effect1_dropShadow_109_2434" result="shape"/>
</filter>
<filter id="filter3_d_109_2434" x="105.999" y="-0.0010376" width="38.0021" height="43.0021" filterUnits="userSpaceOnUse" color-interpolation-filters="sRGB">
<feFlood flood-opacity="0" result="BackgroundImageFix"/>
<feColorMatrix in="SourceAlpha" type="matrix" values="0 0 0 0 0 0 0 0 0 0 0 0 0 0 0 0 0 0 127 0" result="hardAlpha"/>
<feOffset dx="2" dy="2"/>
<feGaussianBlur stdDeviation="2"/>
<feComposite in2="hardAlpha" operator="out"/>
<feColorMatrix type="matrix" values="0 0 0 0 0.8 0 0 0 0 0.8 0 0 0 0 0.8 0 0 0 0.25 0"/>
<feBlend mode="normal" in2="BackgroundImageFix" result="effect1_dropShadow_109_2434"/>
<feBlend mode="normal" in="SourceGraphic" in2="effect1_dropShadow_109_2434" result="shape"/>
</filter>
</defs>
</svg>
