<svg width="26" height="26" viewBox="0 0 26 26" fill="none" xmlns="http://www.w3.org/2000/svg">
<path fill-rule="evenodd" clip-rule="evenodd" d="M4.97966 3.03728C5.76308 2.72391 6.95025 2.4375 8.66683 2.4375C10.4488 2.4375 11.9274 3.02902 13.2547 3.56004L13.3019 3.57895C14.6708 4.12649 15.8867 4.60417 17.3335 4.60417C18.8669 4.60417 19.8464 4.34891 20.4172 4.12061C20.7032 4.00618 20.8903 3.89706 20.9961 3.82656C21.0491 3.79122 21.0822 3.76524 21.0974 3.75269C21.1013 3.74947 21.1057 3.74572 21.1057 3.74572C21.338 3.52386 21.6799 3.45932 21.9778 3.58268C22.2814 3.70844 22.4793 4.00471 22.4793 4.33333V17.3333C22.4793 17.5488 22.3937 17.7555 22.2414 17.9079L21.6668 17.3333C22.2414 17.9079 22.2405 17.9087 22.2405 17.9087L22.2396 17.9096L22.2378 17.9114L22.2338 17.9154L22.2244 17.9244C22.2176 17.9309 22.2096 17.9383 22.2004 17.9467C22.182 17.9634 22.1588 17.9837 22.1304 18.0071C22.0737 18.0538 21.9968 18.1124 21.8975 18.1786C21.6985 18.3113 21.4117 18.473 21.0207 18.6294C20.2372 18.9428 19.0501 19.2292 17.3335 19.2292C15.5515 19.2292 14.073 18.6376 12.7457 18.1066L12.6984 18.0877C11.3295 17.5402 10.1136 17.0625 8.66683 17.0625C7.13341 17.0625 6.15391 17.3178 5.58317 17.5461C5.39725 17.6204 5.25314 17.6925 5.146 17.7533V22.75C5.146 23.1987 4.78223 23.5625 4.3335 23.5625C3.88476 23.5625 3.521 23.1987 3.521 22.75V4.33333C3.521 4.11784 3.6066 3.91118 3.75897 3.75881L4.3335 4.33333C3.75897 3.75881 3.75983 3.75796 3.75983 3.75796L3.76071 3.75708L3.76255 3.75525L3.76657 3.7513L3.77591 3.74229C3.78272 3.7358 3.79071 3.72833 3.79991 3.71997C3.81831 3.70324 3.84155 3.68292 3.86988 3.65959C3.92658 3.6129 4.00353 3.55424 4.10285 3.48802C4.3018 3.35539 4.58867 3.19368 4.97966 3.03728ZM5.146 4.75328V15.9735C5.92784 15.6861 7.06757 15.4375 8.66683 15.4375C10.4488 15.4375 11.9274 16.029 13.2547 16.56L13.3019 16.5789C14.6708 17.1265 15.8867 17.6042 17.3335 17.6042C18.8669 17.6042 19.8464 17.3489 20.4172 17.1206C20.6031 17.0462 20.7472 16.9741 20.8543 16.9134V5.69318C20.0725 5.98057 18.9327 6.22917 17.3335 6.22917C15.5515 6.22917 14.073 5.63765 12.7457 5.10662L12.6984 5.08772C11.3295 4.54017 10.1136 4.0625 8.66683 4.0625C7.13341 4.0625 6.15391 4.31776 5.58317 4.54605C5.39725 4.62042 5.25314 4.69254 5.146 4.75328Z" fill="#333333"/>
</svg>
