<svg width="24" height="24" viewBox="0 0 24 24" fill="none" xmlns="http://www.w3.org/2000/svg">
<path fill-rule="evenodd" clip-rule="evenodd" d="M3.25 5C3.25 4.0335 4.0335 3.25 5 3.25H19C19.9665 3.25 20.75 4.0335 20.75 5V19C20.75 19.9665 19.9665 20.75 19 20.75H5C4.0335 20.75 3.25 19.9665 3.25 19V5ZM5 4.75C4.86193 4.75 4.75 4.86193 4.75 5V16.1893L7.05546 13.8839C8.1294 12.8099 9.8706 12.8099 10.9445 13.8839L11.1161 14.0555C11.6043 14.5436 12.3957 14.5436 12.8839 14.0555L15.0555 11.8839C16.1294 10.8099 17.8706 10.8099 18.9445 11.8839L19.25 12.1893V5C19.25 4.86193 19.1381 4.75 19 4.75H5ZM19.25 14.3107L17.8839 12.9445C17.3957 12.4564 16.6043 12.4564 16.1161 12.9445L13.9445 15.1161C12.8706 16.1901 11.1294 16.1901 10.0555 15.1161L9.88388 14.9445C9.39573 14.4564 8.60427 14.4564 8.11612 14.9445L4.75 18.3107V19C4.75 19.1381 4.86193 19.25 5 19.25H19C19.1381 19.25 19.25 19.1381 19.25 19V14.3107ZM8.845 7.75C8.24148 7.75 7.75 8.24095 7.75 8.846C7.75 9.45105 8.24148 9.942 8.845 9.942C9.44979 9.942 9.941 9.45079 9.941 8.846C9.941 8.24121 9.44979 7.75 8.845 7.75ZM6.25 8.846C6.25 7.41305 7.41252 6.25 8.845 6.25C10.2782 6.25 11.441 7.41279 11.441 8.846C11.441 10.2792 10.2782 11.442 8.845 11.442C7.41252 11.442 6.25 10.2789 6.25 8.846Z" fill="white"/>
</svg>
