<svg width="16" height="16" viewBox="0 0 16 16" fill="none" xmlns="http://www.w3.org/2000/svg">
<path fill-rule="evenodd" clip-rule="evenodd" d="M8.00008 2.5C5.3307 2.5 3.16675 4.66396 3.16675 7.33333C3.16675 9.92412 5.23064 12.1353 8.00008 13.4489C10.7695 12.1353 12.8334 9.92412 12.8334 7.33333C12.8334 4.66396 10.6695 2.5 8.00008 2.5ZM2.16675 7.33333C2.16675 4.11167 4.77842 1.5 8.00008 1.5C11.2217 1.5 13.8334 4.11167 13.8334 7.33333C13.8334 10.5697 11.2247 13.0891 8.20627 14.4555C8.07521 14.5148 7.92495 14.5148 7.79389 14.4555C4.77542 13.0891 2.16675 10.5697 2.16675 7.33333ZM8.00008 5.83333C7.17165 5.83333 6.50008 6.50491 6.50008 7.33333C6.50008 8.16176 7.17165 8.83333 8.00008 8.83333C8.82851 8.83333 9.50008 8.16176 9.50008 7.33333C9.50008 6.50491 8.82851 5.83333 8.00008 5.83333ZM5.50008 7.33333C5.50008 5.95262 6.61937 4.83333 8.00008 4.83333C9.38079 4.83333 10.5001 5.95262 10.5001 7.33333C10.5001 8.71405 9.38079 9.83333 8.00008 9.83333C6.61937 9.83333 5.50008 8.71405 5.50008 7.33333Z" fill="#333333"/>
</svg>
