<svg width="16" height="16" viewBox="0 0 16 16" fill="none" xmlns="http://www.w3.org/2000/svg">
<path fill-rule="evenodd" clip-rule="evenodd" d="M7.99992 2.5C6.8033 2.5 5.83325 3.47005 5.83325 4.66667V6.83333H10.1666V4.66667C10.1666 3.47005 9.19654 2.5 7.99992 2.5ZM11.1666 6.83333V4.66667C11.1666 2.91777 9.74882 1.5 7.99992 1.5C6.25102 1.5 4.83325 2.91777 4.83325 4.66667V6.83333H3.33325C3.05711 6.83333 2.83325 7.05719 2.83325 7.33333V14C2.83325 14.2761 3.05711 14.5 3.33325 14.5H12.6666C12.9427 14.5 13.1666 14.2761 13.1666 14V7.33333C13.1666 7.05719 12.9427 6.83333 12.6666 6.83333H11.1666ZM3.83325 7.83333V13.5H12.1666V7.83333H3.83325Z" fill="#333333"/>
</svg>
