<svg width="16" height="16" viewBox="0 0 16 16" fill="none" xmlns="http://www.w3.org/2000/svg">
<path fill-rule="evenodd" clip-rule="evenodd" d="M8.00008 2.5C6.80346 2.5 5.83341 3.47005 5.83341 4.66667C5.83341 5.86328 6.80346 6.83333 8.00008 6.83333C9.1967 6.83333 10.1667 5.86328 10.1667 4.66667C10.1667 3.47005 9.1967 2.5 8.00008 2.5ZM4.83341 4.66667C4.83341 2.91777 6.25118 1.5 8.00008 1.5C9.74898 1.5 11.1667 2.91777 11.1667 4.66667C11.1667 6.41557 9.74898 7.83333 8.00008 7.83333C6.25118 7.83333 4.83341 6.41557 4.83341 4.66667ZM2.16675 12.6667C2.16675 10.9178 3.58451 9.5 5.33341 9.5H10.6667C12.4156 9.5 13.8334 10.9178 13.8334 12.6667V14C13.8334 14.2761 13.6096 14.5 13.3334 14.5C13.0573 14.5 12.8334 14.2761 12.8334 14V12.6667C12.8334 11.47 11.8634 10.5 10.6667 10.5H5.33341C4.1368 10.5 3.16675 11.47 3.16675 12.6667V14C3.16675 14.2761 2.94289 14.5 2.66675 14.5C2.39061 14.5 2.16675 14.2761 2.16675 14V12.6667Z" fill="white"/>
</svg>
