<svg width="24" height="20" viewBox="0 0 24 20" fill="none" xmlns="http://www.w3.org/2000/svg">
<path fill-rule="evenodd" clip-rule="evenodd" d="M9 1.75C7.20507 1.75 5.75 3.20507 5.75 5C5.75 6.79493 7.20507 8.25 9 8.25C10.7949 8.25 12.25 6.79493 12.25 5C12.25 3.20507 10.7949 1.75 9 1.75ZM4.25 5C4.25 2.37665 6.37665 0.25 9 0.25C11.6234 0.25 13.75 2.37665 13.75 5C13.75 7.62335 11.6234 9.75 9 9.75C6.37665 9.75 4.25 7.62335 4.25 5ZM14.25 1C14.25 0.585786 14.5858 0.25 15 0.25C17.6234 0.25 19.75 2.37665 19.75 5C19.75 7.62335 17.6234 9.75 15 9.75C14.5858 9.75 14.25 9.41421 14.25 9C14.25 8.58579 14.5858 8.25 15 8.25C16.7949 8.25 18.25 6.79493 18.25 5C18.25 3.20507 16.7949 1.75 15 1.75C14.5858 1.75 14.25 1.41421 14.25 1ZM0.25 17C0.25 14.3766 2.37665 12.25 5 12.25H13C15.6234 12.25 17.75 14.3766 17.75 17V19C17.75 19.4142 17.4142 19.75 17 19.75C16.5858 19.75 16.25 19.4142 16.25 19V17C16.25 15.2051 14.7949 13.75 13 13.75H5C3.20507 13.75 1.75 15.2051 1.75 17V19C1.75 19.4142 1.41421 19.75 1 19.75C0.585786 19.75 0.25 19.4142 0.25 19V17ZM17.75 13C17.75 12.5858 18.0858 12.25 18.5 12.25H19C21.6234 12.25 23.75 14.3766 23.75 17V19C23.75 19.4142 23.4142 19.75 23 19.75C22.5858 19.75 22.25 19.4142 22.25 19V17C22.25 15.2051 20.7949 13.75 19 13.75H18.5C18.0858 13.75 17.75 13.4142 17.75 13Z" fill="white"/>
</svg>
