<svg width="16" height="16" viewBox="0 0 16 16" fill="none" xmlns="http://www.w3.org/2000/svg">
<path fill-rule="evenodd" clip-rule="evenodd" d="M2.56201 4.4131C2.77721 4.2517 3.0516 4.16666 3.33341 4.16666H12.6667C12.9486 4.16666 13.2229 4.2517 13.4382 4.4131C13.6535 4.57462 13.8334 4.83592 13.8334 5.16666V12.1667C13.8334 12.4974 13.6535 12.7587 13.4382 12.9202C13.2229 13.0816 12.9486 13.1667 12.6667 13.1667H3.33341C3.0516 13.1667 2.77721 13.0816 2.56201 12.9202C2.34665 12.7587 2.16675 12.4974 2.16675 12.1667V5.16666C2.16675 4.83592 2.34665 4.57462 2.56201 4.4131ZM3.16675 5.20972V12.1236C3.19485 12.1427 3.25193 12.1667 3.33341 12.1667H12.6667C12.7482 12.1667 12.8053 12.1427 12.8334 12.1236V5.20972C12.8053 5.19059 12.7482 5.16666 12.6667 5.16666H3.33341C3.25193 5.16666 3.19485 5.19059 3.16675 5.20972Z" fill="#333333"/>
<path fill-rule="evenodd" clip-rule="evenodd" d="M5.5 3.33334C5.5 3.0572 5.72386 2.83334 6 2.83334H10C10.2761 2.83334 10.5 3.0572 10.5 3.33334V4.66668C10.5 4.94282 10.2761 5.16668 10 5.16668H6C5.72386 5.16668 5.5 4.94282 5.5 4.66668V3.33334ZM6.5 3.83334V4.16668H9.5V3.83334H6.5Z" fill="#333333"/>
<path fill-rule="evenodd" clip-rule="evenodd" d="M4.16675 7C4.16675 6.72386 4.39061 6.5 4.66675 6.5H8.66675C8.94289 6.5 9.16675 6.72386 9.16675 7C9.16675 7.27614 8.94289 7.5 8.66675 7.5H4.66675C4.39061 7.5 4.16675 7.27614 4.16675 7Z" fill="#333333"/>
<path fill-rule="evenodd" clip-rule="evenodd" d="M4.16675 9.33334C4.16675 9.0572 4.39061 8.83334 4.66675 8.83334H7.33342C7.60956 8.83334 7.83342 9.0572 7.83342 9.33334C7.83342 9.60949 7.60956 9.83334 7.33342 9.83334H4.66675C4.39061 9.83334 4.16675 9.60949 4.16675 9.33334Z" fill="#333333"/>
</svg>
