<svg width="24" height="24" viewBox="0 0 24 24" fill="none" xmlns="http://www.w3.org/2000/svg">
<path fill-rule="evenodd" clip-rule="evenodd" d="M12 3.75C9.10051 3.75 6.75 6.10051 6.75 9C6.75 11.1134 6.22399 13.1997 5.71151 14.7372C5.51557 15.325 5.31958 15.8385 5.15157 16.25H18.8484C18.6804 15.8385 18.4844 15.325 18.2885 14.7372C17.776 13.1997 17.25 11.1134 17.25 9C17.25 6.10051 14.8995 3.75 12 3.75ZM20.6709 16.6648C20.7871 16.8973 20.7746 17.1733 20.638 17.3943C20.5013 17.6154 20.2599 17.75 20 17.75H15.75V18C15.75 20.0711 14.0711 21.75 12 21.75C9.92893 21.75 8.25 20.0711 8.25 18V17.75H4C3.74007 17.75 3.49867 17.6154 3.36201 17.3943C3.22543 17.1733 3.21295 16.8974 3.32901 16.6649C3.32901 16.6649 3.32902 16.6649 3.32902 16.6649L3.32905 16.6649L3.32905 16.6648L3.32907 16.6648C3.32911 16.6647 3.32915 16.6647 3.32918 16.6646L3.32958 16.6638L3.3328 16.6573L3.34734 16.6274C3.36052 16.6002 3.3805 16.5584 3.4063 16.5031C3.45792 16.3925 3.53277 16.2279 3.62314 16.0171C3.80404 15.595 4.04623 14.9896 4.28849 14.2628C4.77601 12.8003 5.25 10.8866 5.25 9C5.25 5.27208 8.27208 2.25 12 2.25C15.7279 2.25 18.75 5.27208 18.75 9C18.75 10.8866 19.224 12.8003 19.7115 14.2628C19.9538 14.9896 20.196 15.595 20.3769 16.0171C20.4672 16.2279 20.5421 16.3925 20.5937 16.5031C20.6195 16.5584 20.6395 16.6002 20.6527 16.6274L20.6672 16.6573L20.6704 16.6638L20.6708 16.6646C20.6709 16.6647 20.6709 16.6647 20.6709 16.6648ZM9.75 17.75V18C9.75 19.2426 10.7574 20.25 12 20.25C13.2426 20.25 14.25 19.2426 14.25 18V17.75H9.75Z" fill="white"/>
</svg>
