<svg width="24" height="24" viewBox="0 0 24 24" fill="none" xmlns="http://www.w3.org/2000/svg">
<path fill-rule="evenodd" clip-rule="evenodd" d="M12 3.75C7.44365 3.75 3.75 7.44365 3.75 12C3.75 13.9378 4.4181 15.7196 5.53651 17.1275C6.17258 15.4458 7.79778 14.25 9.70227 14.25H14.2977C16.2022 14.25 17.8274 15.4458 18.4635 17.1275C19.5819 15.7196 20.25 13.9378 20.25 12C20.25 7.44365 16.5563 3.75 12 3.75ZM17.2325 18.3787C17.0713 16.9004 15.8189 15.75 14.2977 15.75H9.70227C8.18113 15.75 6.92868 16.9004 6.76753 18.3787C8.19138 19.5481 10.0137 20.25 12 20.25C13.9863 20.25 15.8086 19.5481 17.2325 18.3787ZM2.25 12C2.25 6.61522 6.61522 2.25 12 2.25C17.3848 2.25 21.75 6.61522 21.75 12C21.75 17.3848 17.3848 21.75 12 21.75C6.61522 21.75 2.25 17.3848 2.25 12ZM12 6.75C10.7574 6.75 9.75 7.75736 9.75 9C9.75 10.2426 10.7574 11.25 12 11.25C13.2426 11.25 14.25 10.2426 14.25 9C14.25 7.75736 13.2426 6.75 12 6.75ZM8.25 9C8.25 6.92893 9.92893 5.25 12 5.25C14.0711 5.25 15.75 6.92893 15.75 9C15.75 11.0711 14.0711 12.75 12 12.75C9.92893 12.75 8.25 11.0711 8.25 9Z" fill="#34C88A"/>
</svg>
