<svg width="24" height="24" viewBox="0 0 24 24" fill="none" xmlns="http://www.w3.org/2000/svg">
<path d="M12 21C16.9706 21 21 16.9706 21 12C21 7.02944 16.9706 3 12 3C7.02944 3 3 7.02944 3 12C3 16.9706 7.02944 21 12 21Z" fill="white" stroke="#BBBBBB"/>
<path d="M16.3536 9.35355C16.5488 9.15829 16.5488 8.84171 16.3536 8.64645C16.1583 8.45118 15.8417 8.45118 15.6464 8.64645L16.3536 9.35355ZM10.4 14.6L10.0465 14.9535C10.2417 15.1488 10.5583 15.1488 10.7536 14.9535L10.4 14.6ZM8.35355 11.8464C8.15829 11.6512 7.84171 11.6512 7.64645 11.8464C7.45118 12.0417 7.45119 12.3583 7.64645 12.5535L8.35355 11.8464ZM15.6464 8.64645L10.0465 14.2464L10.7536 14.9535L16.3536 9.35355L15.6464 8.64645ZM7.64645 12.5535L10.0465 14.9535L10.7536 14.2464L8.35355 11.8464L7.64645 12.5535Z" fill="#BBBBBB"/>
</svg>
