<svg width="24" height="24" viewBox="0 0 24 24" fill="none" xmlns="http://www.w3.org/2000/svg">
<circle cx="12" cy="12" r="9" fill="#34C88A"/>
<path d="M16.3536 9.35355C16.5488 9.15829 16.5488 8.84171 16.3536 8.64645C16.1583 8.45118 15.8417 8.45118 15.6464 8.64645L16.3536 9.35355ZM10.4 14.6L10.0465 14.9535C10.2417 15.1488 10.5583 15.1488 10.7536 14.9535L10.4 14.6ZM8.35355 11.8464C8.15829 11.6512 7.84171 11.6512 7.64645 11.8464C7.45118 12.0417 7.45119 12.3583 7.64645 12.5535L8.35355 11.8464ZM15.6464 8.64645L10.0465 14.2464L10.7536 14.9535L16.3536 9.35355L15.6464 8.64645ZM7.64645 12.5535L10.0465 14.9535L10.7536 14.2464L8.35355 11.8464L7.64645 12.5535Z" fill="white"/>
</svg>
