<svg width="10" height="8" viewBox="0 0 10 8" fill="none" xmlns="http://www.w3.org/2000/svg">
<path fill-rule="evenodd" clip-rule="evenodd" d="M5 0.777812C4.81591 0.777812 4.66667 0.92705 4.66667 1.11115C4.66667 1.29524 4.81591 1.44448 5 1.44448C5.18409 1.44448 5.33333 1.29524 5.33333 1.11115C5.33333 0.92705 5.18409 0.777812 5 0.777812ZM4 1.11115C4 0.55886 4.44772 0.111145 5 0.111145C5.55229 0.111145 6 0.55886 6 1.11115C6 1.47462 5.80608 1.7928 5.51605 1.96788L6.63515 3.72645L8.3547 2.31954C8.13775 2.13611 8 1.86194 8 1.55559C8 1.0033 8.44772 0.555589 9 0.555589C9.55229 0.555589 10 1.0033 10 1.55559C10 2.00722 9.70061 2.38892 9.28947 2.51305L8.43991 7.61039C8.41312 7.77112 8.27406 7.88892 8.11111 7.88892H1.88889C1.72594 7.88892 1.58688 7.77112 1.56009 7.61039L0.710535 2.51305C0.299394 2.38892 0 2.00722 0 1.55559C0 1.0033 0.447715 0.555589 1 0.555589C1.55228 0.555589 2 1.0033 2 1.55559C2 1.86194 1.86225 2.13611 1.6453 2.31954L3.36485 3.72645L4.48395 1.96788C4.19392 1.7928 4 1.47462 4 1.11115ZM5 2.39869L3.72567 4.40121C3.6745 4.48162 3.59137 4.53627 3.49728 4.55138C3.40318 4.56648 3.30712 4.54059 3.23337 4.48024L1.4744 3.04109L2.17126 7.22226H7.82874L8.5256 3.04109L6.76663 4.48024C6.69288 4.54059 6.59682 4.56648 6.50272 4.55138C6.40863 4.53627 6.3255 4.48162 6.27434 4.40121L5 2.39869ZM1 1.22226C0.815905 1.22226 0.666667 1.37149 0.666667 1.55559C0.666667 1.73968 0.815905 1.88892 1 1.88892C1.1841 1.88892 1.33333 1.73968 1.33333 1.55559C1.33333 1.37149 1.1841 1.22226 1 1.22226ZM9 1.22226C8.81591 1.22226 8.66667 1.37149 8.66667 1.55559C8.66667 1.73968 8.81591 1.88892 9 1.88892C9.1841 1.88892 9.33333 1.73968 9.33333 1.55559C9.33333 1.37149 9.1841 1.22226 9 1.22226Z" fill="white"/>
</svg>
