<svg width="13" height="13" viewBox="0 0 13 13" fill="none" xmlns="http://www.w3.org/2000/svg">
<path fill-rule="evenodd" clip-rule="evenodd" d="M2.49007 1.51864C2.88178 1.36196 3.47537 1.21875 4.33366 1.21875C5.22466 1.21875 5.96392 1.51451 6.62758 1.78002L6.6512 1.78947C7.33564 2.06325 7.94358 2.30208 8.66699 2.30208C9.4337 2.30208 9.92345 2.17446 10.2088 2.06031C10.3519 2.00309 10.4454 1.94853 10.4983 1.91328C10.5248 1.89561 10.5413 1.88262 10.549 1.87634C10.5509 1.87474 10.5531 1.87286 10.5531 1.87286C10.6692 1.76193 10.8402 1.72966 10.9891 1.79134C11.1409 1.85422 11.2399 2.00235 11.2399 2.16667V8.66667C11.2399 8.77441 11.1971 8.87774 11.1209 8.95393L10.8337 8.66667C11.1209 8.95393 11.1205 8.95436 11.1205 8.95436L11.1201 8.9548L11.1191 8.95571L11.1171 8.95768L11.1125 8.96219C11.109 8.96544 11.1051 8.96917 11.1005 8.97335C11.0912 8.98172 11.0796 8.99187 11.0655 9.00354C11.0371 9.02688 10.9986 9.05622 10.949 9.08932C10.8495 9.15564 10.7061 9.2365 10.5106 9.31469C10.1189 9.47138 9.52528 9.61458 8.66699 9.61458C7.77599 9.61458 7.03673 9.31882 6.37307 9.05331L6.34945 9.04386C5.66501 8.77009 5.05707 8.53125 4.33366 8.53125C3.56695 8.53125 3.0772 8.65888 2.79183 8.77303C2.69887 8.81021 2.62681 8.84627 2.57324 8.87664V11.375C2.57324 11.5994 2.39136 11.7813 2.16699 11.7813C1.94263 11.7813 1.76074 11.5994 1.76074 11.375V2.16667C1.76074 2.05892 1.80354 1.95559 1.87973 1.8794L2.16699 2.16667C1.87973 1.8794 1.88016 1.87898 1.88016 1.87898L1.8806 1.87854L1.88152 1.87762L1.88353 1.87565L1.8882 1.87115C1.8916 1.8679 1.8956 1.86416 1.9002 1.85998C1.9094 1.85162 1.92102 1.84146 1.93518 1.8298C1.96353 1.80645 2.00201 1.77712 2.05167 1.74401C2.15114 1.6777 2.29458 1.59684 2.49007 1.51864ZM2.57324 2.37664V7.98674C2.96416 7.84305 3.53403 7.71875 4.33366 7.71875C5.22466 7.71875 5.96392 8.01451 6.62758 8.28002L6.6512 8.28947C7.33564 8.56325 7.94358 8.80208 8.66699 8.80208C9.4337 8.80208 9.92345 8.67446 10.2088 8.56031C10.3018 8.52312 10.3738 8.48706 10.4274 8.4567V2.84659C10.0365 2.99029 9.46662 3.11458 8.66699 3.11458C7.77599 3.11458 7.03672 2.81882 6.37307 2.55331L6.34945 2.54386C5.66501 2.27009 5.05707 2.03125 4.33366 2.03125C3.56695 2.03125 3.0772 2.15888 2.79183 2.27303C2.69887 2.31021 2.62681 2.34627 2.57324 2.37664Z" fill="white"/>
</svg>
