<svg width="16" height="16" viewBox="0 0 16 16" fill="none" xmlns="http://www.w3.org/2000/svg">
<path fill-rule="evenodd" clip-rule="evenodd" d="M1.5 3.99998C1.5 3.35565 2.02233 2.83331 2.66667 2.83331H13.3333C13.9777 2.83331 14.5 3.35565 14.5 3.99998V12C14.5 12.6443 13.9777 13.1666 13.3333 13.1666H2.66667C2.02234 13.1666 1.5 12.6443 1.5 12V3.99998ZM3.20711 3.83331L7.41074 8.03695C7.73618 8.36239 8.26382 8.36239 8.58926 8.03695L12.7929 3.83331H3.20711ZM13.5 4.54042L9.29636 8.74406C8.5804 9.46002 7.4196 9.46002 6.70364 8.74406L2.5 4.54042V12C2.5 12.092 2.57462 12.1666 2.66667 12.1666H13.3333C13.4254 12.1666 13.5 12.092 13.5 12V4.54042Z" fill="#333333"/>
</svg>
