<svg width="20" height="20" viewBox="0 0 20 20" fill="none" xmlns="http://www.w3.org/2000/svg">
<path fill-rule="evenodd" clip-rule="evenodd" d="M8.75 3.125C5.6434 3.125 3.125 5.6434 3.125 8.75C3.125 11.8566 5.6434 14.375 8.75 14.375C11.8566 14.375 14.375 11.8566 14.375 8.75C14.375 5.6434 11.8566 3.125 8.75 3.125ZM1.875 8.75C1.875 4.95304 4.95304 1.875 8.75 1.875C12.547 1.875 15.625 4.95304 15.625 8.75C15.625 10.4234 15.0271 11.9572 14.0333 13.1494L17.1086 16.2247C17.3527 16.4688 17.3527 16.8645 17.1086 17.1086C16.8645 17.3527 16.4688 17.3527 16.2247 17.1086L13.1494 14.0333C11.9572 15.0271 10.4234 15.625 8.75 15.625C4.95304 15.625 1.875 12.547 1.875 8.75Z" fill="#333333"/>
</svg>
