<svg width="24" height="24" viewBox="0 0 24 24" fill="none" xmlns="http://www.w3.org/2000/svg">
<path fill-rule="evenodd" clip-rule="evenodd" d="M18 4.75L14 4.75C13.5858 4.75 13.25 4.41421 13.25 4C13.25 3.58579 13.5858 3.25 14 3.25L18 3.25C19.5188 3.25 20.75 4.48122 20.75 6V18C20.75 19.5188 19.5188 20.75 18 20.75H14C13.5858 20.75 13.25 20.4142 13.25 20C13.25 19.5858 13.5858 19.25 14 19.25H18C18.6904 19.25 19.25 18.6904 19.25 18V6C19.25 5.30964 18.6904 4.75 18 4.75ZM7.53033 7.46967C7.82322 7.76256 7.82322 8.23744 7.53033 8.53033L4.81066 11.25L15 11.25C15.4142 11.25 15.75 11.5858 15.75 12C15.75 12.4142 15.4142 12.75 15 12.75L4.81066 12.75L7.53033 15.4697C7.82322 15.7626 7.82322 16.2374 7.53033 16.5303C7.23744 16.8232 6.76256 16.8232 6.46967 16.5303L2.46967 12.5303C2.17678 12.2374 2.17678 11.7626 2.46967 11.4697L6.46967 7.46967C6.76256 7.17678 7.23744 7.17678 7.53033 7.46967Z" fill="#333333"/>
</svg>
